%
M48
M72
T01C0.0236
T02C0.0315
T03C0.0320
T04C0.0354
T05C0.0394
T06C0.0400
T07C0.1260
%
T01
X12143Y11550
X12143Y12800
X19643Y16800
X20143Y18300
X21143Y14800
X24643Y9800
X25643Y9300
X29143Y8800
X30143Y5300
X31143Y2300
X34143Y5300
X21643Y5800
X20643Y4800
X20643Y7800
X33643Y22800
X26143Y26800
X23643Y30800
X21643Y29800
X19143Y24300
X18643Y23300
X10893Y27800
X10143Y28300
T02
X12643Y21300
X21643Y24300
X22643Y24300
X23643Y24300
X24643Y24300
X25643Y24300
X26643Y24300
X27643Y24300
X28643Y24300
X29643Y24300
X30643Y24300
T03
X31143Y20800
X35143Y20800
X36643Y21300
X37643Y21300
X29643Y17300
X28143Y17300
X23643Y17800
X19643Y17800
X15143Y18800
X14143Y18800
X14143Y8300
X15143Y8300
X16143Y8300
X17143Y8300
X18143Y8300
X19143Y8300
X19143Y5300
X18143Y5300
X17143Y5300
X16143Y5300
X15143Y5300
X14143Y5300
X13143Y5300
X12143Y5300
X12143Y8300
X13143Y8300
X28143Y8800
X28143Y10800
X28143Y13300
X29643Y13300
X32143Y10800
X32143Y8800
X35643Y7800
X37143Y7800
X37143Y3800
X35643Y3800
X34143Y3800
X33643Y3050
X33143Y3800
X31143Y3800
X30643Y3050
X30143Y3800
T04
X26643Y3300
X25643Y3300
X25643Y2300
X26643Y2300
X24643Y2300
X24643Y3300
X20143Y2800
X19143Y2800
X18143Y2800
X17143Y2800
X16143Y2800
X15143Y2800
X14143Y2800
X13143Y2800
X12143Y2800
X11143Y2800
X10643Y11800
X9643Y11800
X9643Y12800
X10643Y12800
X10643Y13800
X10643Y14800
X9643Y14800
X9643Y13800
X20643Y27800
X21643Y27800
X22643Y27800
X23643Y27800
X24643Y27800
X25643Y27800
X26643Y27800
X27643Y27800
X28643Y27800
X29643Y27800
X30643Y27800
X31643Y27800
X32643Y27800
X32643Y28800
X31643Y28800
X30643Y28800
X29643Y28800
X28643Y28800
X27643Y28800
X26643Y28800
X25643Y28800
X24643Y28800
X23643Y28800
X22643Y28800
X21643Y28800
X20643Y28800
X35143Y14800
X36143Y14800
X36143Y13800
X36143Y12800
X35143Y12800
X35143Y13800
X35143Y11800
X36143Y11800
T05
X34961Y17816
X34961Y19587
X37521Y19587
X37521Y17816
X34643Y1800
X33643Y1800
X32643Y1800
X31643Y1800
X30643Y1800
X29643Y1800
X11143Y19300
X10143Y19300
X9143Y19300
T06
X12643Y23300
X13643Y23300
X14643Y23300
X14643Y15800
X15643Y15800
X24143Y6800
X25143Y6800
X31143Y16800
X32143Y16800
X32143Y18800
X31143Y18800
T07
X8143Y1300
X37643Y1300
X37643Y30800
X8143Y30800
M30
