G75*
G70*
%OFA0B0*%
%FSLAX24Y24*%
%IPPOS*%
%LPD*%
%AMOC8*
5,1,8,0,0,1.08239X$1,22.5*
%
%ADD10C,0.0000*%
%ADD11C,0.0006*%
D10*
X007513Y001300D02*
X007515Y001350D01*
X007521Y001400D01*
X007531Y001449D01*
X007545Y001497D01*
X007562Y001544D01*
X007583Y001589D01*
X007608Y001633D01*
X007636Y001674D01*
X007668Y001713D01*
X007702Y001750D01*
X007739Y001784D01*
X007779Y001814D01*
X007821Y001841D01*
X007865Y001865D01*
X007911Y001886D01*
X007958Y001902D01*
X008006Y001915D01*
X008056Y001924D01*
X008105Y001929D01*
X008156Y001930D01*
X008206Y001927D01*
X008255Y001920D01*
X008304Y001909D01*
X008352Y001894D01*
X008398Y001876D01*
X008443Y001854D01*
X008486Y001828D01*
X008527Y001799D01*
X008566Y001767D01*
X008602Y001732D01*
X008634Y001694D01*
X008664Y001654D01*
X008691Y001611D01*
X008714Y001567D01*
X008733Y001521D01*
X008749Y001473D01*
X008761Y001424D01*
X008769Y001375D01*
X008773Y001325D01*
X008773Y001275D01*
X008769Y001225D01*
X008761Y001176D01*
X008749Y001127D01*
X008733Y001079D01*
X008714Y001033D01*
X008691Y000989D01*
X008664Y000946D01*
X008634Y000906D01*
X008602Y000868D01*
X008566Y000833D01*
X008527Y000801D01*
X008486Y000772D01*
X008443Y000746D01*
X008398Y000724D01*
X008352Y000706D01*
X008304Y000691D01*
X008255Y000680D01*
X008206Y000673D01*
X008156Y000670D01*
X008105Y000671D01*
X008056Y000676D01*
X008006Y000685D01*
X007958Y000698D01*
X007911Y000714D01*
X007865Y000735D01*
X007821Y000759D01*
X007779Y000786D01*
X007739Y000816D01*
X007702Y000850D01*
X007668Y000887D01*
X007636Y000926D01*
X007608Y000967D01*
X007583Y001011D01*
X007562Y001056D01*
X007545Y001103D01*
X007531Y001151D01*
X007521Y001200D01*
X007515Y001250D01*
X007513Y001300D01*
X037013Y001300D02*
X037015Y001350D01*
X037021Y001400D01*
X037031Y001449D01*
X037045Y001497D01*
X037062Y001544D01*
X037083Y001589D01*
X037108Y001633D01*
X037136Y001674D01*
X037168Y001713D01*
X037202Y001750D01*
X037239Y001784D01*
X037279Y001814D01*
X037321Y001841D01*
X037365Y001865D01*
X037411Y001886D01*
X037458Y001902D01*
X037506Y001915D01*
X037556Y001924D01*
X037605Y001929D01*
X037656Y001930D01*
X037706Y001927D01*
X037755Y001920D01*
X037804Y001909D01*
X037852Y001894D01*
X037898Y001876D01*
X037943Y001854D01*
X037986Y001828D01*
X038027Y001799D01*
X038066Y001767D01*
X038102Y001732D01*
X038134Y001694D01*
X038164Y001654D01*
X038191Y001611D01*
X038214Y001567D01*
X038233Y001521D01*
X038249Y001473D01*
X038261Y001424D01*
X038269Y001375D01*
X038273Y001325D01*
X038273Y001275D01*
X038269Y001225D01*
X038261Y001176D01*
X038249Y001127D01*
X038233Y001079D01*
X038214Y001033D01*
X038191Y000989D01*
X038164Y000946D01*
X038134Y000906D01*
X038102Y000868D01*
X038066Y000833D01*
X038027Y000801D01*
X037986Y000772D01*
X037943Y000746D01*
X037898Y000724D01*
X037852Y000706D01*
X037804Y000691D01*
X037755Y000680D01*
X037706Y000673D01*
X037656Y000670D01*
X037605Y000671D01*
X037556Y000676D01*
X037506Y000685D01*
X037458Y000698D01*
X037411Y000714D01*
X037365Y000735D01*
X037321Y000759D01*
X037279Y000786D01*
X037239Y000816D01*
X037202Y000850D01*
X037168Y000887D01*
X037136Y000926D01*
X037108Y000967D01*
X037083Y001011D01*
X037062Y001056D01*
X037045Y001103D01*
X037031Y001151D01*
X037021Y001200D01*
X037015Y001250D01*
X037013Y001300D01*
X037013Y030800D02*
X037015Y030850D01*
X037021Y030900D01*
X037031Y030949D01*
X037045Y030997D01*
X037062Y031044D01*
X037083Y031089D01*
X037108Y031133D01*
X037136Y031174D01*
X037168Y031213D01*
X037202Y031250D01*
X037239Y031284D01*
X037279Y031314D01*
X037321Y031341D01*
X037365Y031365D01*
X037411Y031386D01*
X037458Y031402D01*
X037506Y031415D01*
X037556Y031424D01*
X037605Y031429D01*
X037656Y031430D01*
X037706Y031427D01*
X037755Y031420D01*
X037804Y031409D01*
X037852Y031394D01*
X037898Y031376D01*
X037943Y031354D01*
X037986Y031328D01*
X038027Y031299D01*
X038066Y031267D01*
X038102Y031232D01*
X038134Y031194D01*
X038164Y031154D01*
X038191Y031111D01*
X038214Y031067D01*
X038233Y031021D01*
X038249Y030973D01*
X038261Y030924D01*
X038269Y030875D01*
X038273Y030825D01*
X038273Y030775D01*
X038269Y030725D01*
X038261Y030676D01*
X038249Y030627D01*
X038233Y030579D01*
X038214Y030533D01*
X038191Y030489D01*
X038164Y030446D01*
X038134Y030406D01*
X038102Y030368D01*
X038066Y030333D01*
X038027Y030301D01*
X037986Y030272D01*
X037943Y030246D01*
X037898Y030224D01*
X037852Y030206D01*
X037804Y030191D01*
X037755Y030180D01*
X037706Y030173D01*
X037656Y030170D01*
X037605Y030171D01*
X037556Y030176D01*
X037506Y030185D01*
X037458Y030198D01*
X037411Y030214D01*
X037365Y030235D01*
X037321Y030259D01*
X037279Y030286D01*
X037239Y030316D01*
X037202Y030350D01*
X037168Y030387D01*
X037136Y030426D01*
X037108Y030467D01*
X037083Y030511D01*
X037062Y030556D01*
X037045Y030603D01*
X037031Y030651D01*
X037021Y030700D01*
X037015Y030750D01*
X037013Y030800D01*
X007513Y030800D02*
X007515Y030850D01*
X007521Y030900D01*
X007531Y030949D01*
X007545Y030997D01*
X007562Y031044D01*
X007583Y031089D01*
X007608Y031133D01*
X007636Y031174D01*
X007668Y031213D01*
X007702Y031250D01*
X007739Y031284D01*
X007779Y031314D01*
X007821Y031341D01*
X007865Y031365D01*
X007911Y031386D01*
X007958Y031402D01*
X008006Y031415D01*
X008056Y031424D01*
X008105Y031429D01*
X008156Y031430D01*
X008206Y031427D01*
X008255Y031420D01*
X008304Y031409D01*
X008352Y031394D01*
X008398Y031376D01*
X008443Y031354D01*
X008486Y031328D01*
X008527Y031299D01*
X008566Y031267D01*
X008602Y031232D01*
X008634Y031194D01*
X008664Y031154D01*
X008691Y031111D01*
X008714Y031067D01*
X008733Y031021D01*
X008749Y030973D01*
X008761Y030924D01*
X008769Y030875D01*
X008773Y030825D01*
X008773Y030775D01*
X008769Y030725D01*
X008761Y030676D01*
X008749Y030627D01*
X008733Y030579D01*
X008714Y030533D01*
X008691Y030489D01*
X008664Y030446D01*
X008634Y030406D01*
X008602Y030368D01*
X008566Y030333D01*
X008527Y030301D01*
X008486Y030272D01*
X008443Y030246D01*
X008398Y030224D01*
X008352Y030206D01*
X008304Y030191D01*
X008255Y030180D01*
X008206Y030173D01*
X008156Y030170D01*
X008105Y030171D01*
X008056Y030176D01*
X008006Y030185D01*
X007958Y030198D01*
X007911Y030214D01*
X007865Y030235D01*
X007821Y030259D01*
X007779Y030286D01*
X007739Y030316D01*
X007702Y030350D01*
X007668Y030387D01*
X007636Y030426D01*
X007608Y030467D01*
X007583Y030511D01*
X007562Y030556D01*
X007545Y030603D01*
X007531Y030651D01*
X007521Y030700D01*
X007515Y030750D01*
X007513Y030800D01*
D11*
X007143Y030800D02*
X007143Y001300D01*
X007145Y001240D01*
X007150Y001179D01*
X007159Y001120D01*
X007172Y001061D01*
X007188Y001002D01*
X007208Y000945D01*
X007231Y000890D01*
X007258Y000835D01*
X007287Y000783D01*
X007320Y000732D01*
X007356Y000683D01*
X007394Y000637D01*
X007436Y000593D01*
X007480Y000551D01*
X007526Y000513D01*
X007575Y000477D01*
X007626Y000444D01*
X007678Y000415D01*
X007733Y000388D01*
X007788Y000365D01*
X007845Y000345D01*
X007904Y000329D01*
X007963Y000316D01*
X008022Y000307D01*
X008083Y000302D01*
X008143Y000300D01*
X037643Y000300D01*
X037703Y000302D01*
X037764Y000307D01*
X037823Y000316D01*
X037882Y000329D01*
X037941Y000345D01*
X037998Y000365D01*
X038053Y000388D01*
X038108Y000415D01*
X038160Y000444D01*
X038211Y000477D01*
X038260Y000513D01*
X038306Y000551D01*
X038350Y000593D01*
X038392Y000637D01*
X038430Y000683D01*
X038466Y000732D01*
X038499Y000783D01*
X038528Y000835D01*
X038555Y000890D01*
X038578Y000945D01*
X038598Y001002D01*
X038614Y001061D01*
X038627Y001120D01*
X038636Y001179D01*
X038641Y001240D01*
X038643Y001300D01*
X038643Y030800D01*
X038641Y030860D01*
X038636Y030921D01*
X038627Y030980D01*
X038614Y031039D01*
X038598Y031098D01*
X038578Y031155D01*
X038555Y031210D01*
X038528Y031265D01*
X038499Y031317D01*
X038466Y031368D01*
X038430Y031417D01*
X038392Y031463D01*
X038350Y031507D01*
X038306Y031549D01*
X038260Y031587D01*
X038211Y031623D01*
X038160Y031656D01*
X038108Y031685D01*
X038053Y031712D01*
X037998Y031735D01*
X037941Y031755D01*
X037882Y031771D01*
X037823Y031784D01*
X037764Y031793D01*
X037703Y031798D01*
X037643Y031800D01*
X008143Y031800D01*
X008083Y031798D01*
X008022Y031793D01*
X007963Y031784D01*
X007904Y031771D01*
X007845Y031755D01*
X007788Y031735D01*
X007733Y031712D01*
X007678Y031685D01*
X007626Y031656D01*
X007575Y031623D01*
X007526Y031587D01*
X007480Y031549D01*
X007436Y031507D01*
X007394Y031463D01*
X007356Y031417D01*
X007320Y031368D01*
X007287Y031317D01*
X007258Y031265D01*
X007231Y031210D01*
X007208Y031155D01*
X007188Y031098D01*
X007172Y031039D01*
X007159Y030980D01*
X007150Y030921D01*
X007145Y030860D01*
X007143Y030800D01*
M02*
